ISO-10303-21;
HEADER;
/* Generated by software containing ST-Developer
 * from STEP Tools, Inc. (www.steptools.com) 
 */

FILE_DESCRIPTION(
/* description */ ('',
'CAx-IF Rec.Pracs.---Representation and Presentation of Product Manufa
cturing Information (PMI)---4.0---2014-10-13'),
/* implementation_level */ '2;1');

FILE_NAME(
/* name */ 'Sanjuks V3-R Shaft.step',
/* time_stamp */ '2025-02-09T15:46:14-05:00',
/* author */ (''),
/* organization */ (''),
/* preprocessor_version */ 'ST-DEVELOPER v20',
/* originating_system */ 'Autodesk Translation Framework v13.20.0.188',

/* authorisation */ '');

FILE_SCHEMA (('AP242_MANAGED_MODEL_BASED_3D_ENGINEERING_MIM_LF { 1 0 10303 442 1 1 4 }'));
ENDSEC;

DATA;
#10=MECHANICAL_DESIGN_GEOMETRIC_PRESENTATION_REPRESENTATION('',(#13),#472);
#11=SHAPE_REPRESENTATION_RELATIONSHIP('SRR','None',#479,#12);
#12=ADVANCED_BREP_SHAPE_REPRESENTATION('',(#14),#471);
#13=STYLED_ITEM('',(#488),#14);
#14=MANIFOLD_SOLID_BREP('Body1',#226);
#15=FACE_BOUND('',#62,.T.);
#16=FACE_BOUND('',#70,.T.);
#17=FACE_BOUND('',#73,.T.);
#18=FACE_BOUND('',#76,.T.);
#19=FACE_BOUND('',#77,.T.);
#20=PLANE('',#245);
#21=PLANE('',#254);
#22=PLANE('',#260);
#23=PLANE('',#263);
#24=CIRCLE('',#242,2.366);
#25=CIRCLE('',#243,1.666);
#26=CIRCLE('',#244,1.666);
#27=CIRCLE('',#246,3.3);
#28=CIRCLE('',#248,1.666);
#29=CIRCLE('',#250,1.942);
#30=CIRCLE('',#251,2.942);
#31=CIRCLE('',#253,2.942);
#32=CIRCLE('',#256,4.3);
#33=CIRCLE('',#257,4.5);
#34=CIRCLE('',#259,4.5);
#35=CIRCLE('',#262,4.3);
#36=CIRCLE('',#264,3.5);
#37=CIRCLE('',#266,3.5);
#38=CONICAL_SURFACE('',#241,2.016,0.785398163397449);
#39=CONICAL_SURFACE('',#249,2.442,0.78539816339745);
#40=CONICAL_SURFACE('',#255,4.4,0.785398163397448);
#41=CONICAL_SURFACE('',#261,4.4,0.785398163397449);
#42=CONICAL_SURFACE('',#265,3.4,0.785398163397448);
#43=CONICAL_SURFACE('',#268,0.833,1.02974425867665);
#44=FACE_OUTER_BOUND('',#59,.T.);
#45=FACE_OUTER_BOUND('',#60,.T.);
#46=FACE_OUTER_BOUND('',#61,.T.);
#47=FACE_OUTER_BOUND('',#63,.T.);
#48=FACE_OUTER_BOUND('',#64,.T.);
#49=FACE_OUTER_BOUND('',#65,.T.);
#50=FACE_OUTER_BOUND('',#66,.T.);
#51=FACE_OUTER_BOUND('',#67,.T.);
#52=FACE_OUTER_BOUND('',#68,.T.);
#53=FACE_OUTER_BOUND('',#69,.T.);
#54=FACE_OUTER_BOUND('',#71,.T.);
#55=FACE_OUTER_BOUND('',#72,.T.);
#56=FACE_OUTER_BOUND('',#74,.T.);
#57=FACE_OUTER_BOUND('',#75,.T.);
#58=FACE_OUTER_BOUND('',#78,.T.);
#59=EDGE_LOOP('',(#150,#151,#152,#153,#154));
#60=EDGE_LOOP('',(#155,#156,#157,#158,#159));
#61=EDGE_LOOP('',(#160));
#62=EDGE_LOOP('',(#161));
#63=EDGE_LOOP('',(#162,#163,#164,#165,#166));
#64=EDGE_LOOP('',(#167,#168,#169,#170));
#65=EDGE_LOOP('',(#171,#172,#173,#174));
#66=EDGE_LOOP('',(#175));
#67=EDGE_LOOP('',(#176,#177,#178,#179));
#68=EDGE_LOOP('',(#180,#181,#182,#183));
#69=EDGE_LOOP('',(#184));
#70=EDGE_LOOP('',(#185));
#71=EDGE_LOOP('',(#186,#187,#188,#189));
#72=EDGE_LOOP('',(#190));
#73=EDGE_LOOP('',(#191));
#74=EDGE_LOOP('',(#192,#193,#194,#195));
#75=EDGE_LOOP('',(#196,#197,#198,#199));
#76=EDGE_LOOP('',(#200,#201));
#77=EDGE_LOOP('',(#202));
#78=EDGE_LOOP('',(#203,#204,#205));
#79=LINE('',#378,#90);
#80=LINE('',#420,#91);
#81=LINE('',#429,#92);
#82=LINE('',#435,#93);
#83=LINE('',#439,#94);
#84=LINE('',#446,#95);
#85=LINE('',#450,#96);
#86=LINE('',#455,#97);
#87=LINE('',#462,#98);
#88=LINE('',#465,#99);
#89=LINE('',#468,#100);
#90=VECTOR('',#273,1.5);
#91=VECTOR('',#278,2.016);
#92=VECTOR('',#289,1.666);
#93=VECTOR('',#296,2.442);
#94=VECTOR('',#301,3.);
#95=VECTOR('',#310,4.4);
#96=VECTOR('',#315,4.5);
#97=VECTOR('',#322,4.4);
#98=VECTOR('',#331,3.4);
#99=VECTOR('',#336,3.5);
#100=VECTOR('',#339,0.833);
#101=B_SPLINE_CURVE_WITH_KNOTS('',3,(#343,#344,#345,#346,#347,#348,#349,
#350,#351,#352,#353,#354,#355,#356,#357,#358,#359,#360,#361,#362,#363,#364,
#365,#366,#367,#368,#369,#370,#371,#372,#373,#374,#375,#376),
 .UNSPECIFIED.,.T.,.F.,(4,2,2,2,2,2,2,2,2,2,2,2,2,2,2,2,4),(0.,0.0573585559862894,
0.114717111972579,0.171997247412298,0.229277382852017,0.286557518291736,
0.343837653731455,0.401196209717745,0.458554765704034,0.515913321690324,
0.573271877676613,0.630552013116332,0.687832148556051,0.745112283995771,
0.80239241943549,0.859750975421779,0.917109531408069),.UNSPECIFIED.);
#102=B_SPLINE_CURVE_WITH_KNOTS('',3,(#380,#381,#382,#383,#384,#385,#386,
#387,#388,#389,#390,#391,#392,#393,#394,#395,#396,#397),.UNSPECIFIED.,.F.,
 .F.,(4,2,2,2,2,2,2,2,4),(0.,0.0573585559862894,0.114717111972579,0.171997247412298,
0.229277382852017,0.286557518291736,0.343837653731456,0.401196209717745,
0.458554765704034),.UNSPECIFIED.);
#103=B_SPLINE_CURVE_WITH_KNOTS('',3,(#398,#399,#400,#401,#402,#403,#404,
#405,#406,#407,#408,#409,#410,#411,#412,#413,#414,#415),.UNSPECIFIED.,.F.,
 .F.,(4,2,2,2,2,2,2,2,4),(0.458554765704034,0.515913321690324,0.573271877676613,
0.630552013116332,0.687832148556051,0.745112283995771,0.80239241943549,
0.859750975421779,0.917109531408069),.UNSPECIFIED.);
#104=VERTEX_POINT('',#342);
#105=VERTEX_POINT('',#377);
#106=VERTEX_POINT('',#379);
#107=VERTEX_POINT('',#417);
#108=VERTEX_POINT('',#419);
#109=VERTEX_POINT('',#421);
#110=VERTEX_POINT('',#425);
#111=VERTEX_POINT('',#428);
#112=VERTEX_POINT('',#432);
#113=VERTEX_POINT('',#434);
#114=VERTEX_POINT('',#438);
#115=VERTEX_POINT('',#443);
#116=VERTEX_POINT('',#445);
#117=VERTEX_POINT('',#449);
#118=VERTEX_POINT('',#454);
#119=VERTEX_POINT('',#458);
#120=VERTEX_POINT('',#461);
#121=VERTEX_POINT('',#467);
#122=EDGE_CURVE('',#104,#104,#101,.T.);
#123=EDGE_CURVE('',#104,#105,#79,.T.);
#124=EDGE_CURVE('',#106,#105,#102,.T.);
#125=EDGE_CURVE('',#105,#106,#103,.T.);
#126=EDGE_CURVE('',#107,#107,#24,.T.);
#127=EDGE_CURVE('',#107,#108,#80,.T.);
#128=EDGE_CURVE('',#108,#109,#25,.T.);
#129=EDGE_CURVE('',#109,#108,#26,.T.);
#130=EDGE_CURVE('',#110,#110,#27,.T.);
#131=EDGE_CURVE('',#109,#111,#81,.T.);
#132=EDGE_CURVE('',#111,#111,#28,.T.);
#133=EDGE_CURVE('',#112,#112,#29,.T.);
#134=EDGE_CURVE('',#112,#113,#82,.T.);
#135=EDGE_CURVE('',#113,#113,#30,.T.);
#136=EDGE_CURVE('',#113,#114,#83,.T.);
#137=EDGE_CURVE('',#114,#114,#31,.T.);
#138=EDGE_CURVE('',#115,#115,#32,.T.);
#139=EDGE_CURVE('',#115,#116,#84,.T.);
#140=EDGE_CURVE('',#116,#116,#33,.T.);
#141=EDGE_CURVE('',#116,#117,#85,.T.);
#142=EDGE_CURVE('',#117,#117,#34,.T.);
#143=EDGE_CURVE('',#117,#118,#86,.T.);
#144=EDGE_CURVE('',#118,#118,#35,.T.);
#145=EDGE_CURVE('',#119,#119,#36,.T.);
#146=EDGE_CURVE('',#110,#120,#87,.T.);
#147=EDGE_CURVE('',#120,#120,#37,.T.);
#148=EDGE_CURVE('',#120,#119,#88,.T.);
#149=EDGE_CURVE('',#111,#121,#89,.T.);
#150=ORIENTED_EDGE('',*,*,#122,.F.);
#151=ORIENTED_EDGE('',*,*,#123,.T.);
#152=ORIENTED_EDGE('',*,*,#124,.F.);
#153=ORIENTED_EDGE('',*,*,#125,.F.);
#154=ORIENTED_EDGE('',*,*,#123,.F.);
#155=ORIENTED_EDGE('',*,*,#126,.T.);
#156=ORIENTED_EDGE('',*,*,#127,.T.);
#157=ORIENTED_EDGE('',*,*,#128,.T.);
#158=ORIENTED_EDGE('',*,*,#129,.T.);
#159=ORIENTED_EDGE('',*,*,#127,.F.);
#160=ORIENTED_EDGE('',*,*,#130,.F.);
#161=ORIENTED_EDGE('',*,*,#126,.F.);
#162=ORIENTED_EDGE('',*,*,#128,.F.);
#163=ORIENTED_EDGE('',*,*,#129,.F.);
#164=ORIENTED_EDGE('',*,*,#131,.T.);
#165=ORIENTED_EDGE('',*,*,#132,.T.);
#166=ORIENTED_EDGE('',*,*,#131,.F.);
#167=ORIENTED_EDGE('',*,*,#133,.T.);
#168=ORIENTED_EDGE('',*,*,#134,.T.);
#169=ORIENTED_EDGE('',*,*,#135,.T.);
#170=ORIENTED_EDGE('',*,*,#134,.F.);
#171=ORIENTED_EDGE('',*,*,#135,.F.);
#172=ORIENTED_EDGE('',*,*,#136,.T.);
#173=ORIENTED_EDGE('',*,*,#137,.F.);
#174=ORIENTED_EDGE('',*,*,#136,.F.);
#175=ORIENTED_EDGE('',*,*,#133,.F.);
#176=ORIENTED_EDGE('',*,*,#138,.T.);
#177=ORIENTED_EDGE('',*,*,#139,.T.);
#178=ORIENTED_EDGE('',*,*,#140,.T.);
#179=ORIENTED_EDGE('',*,*,#139,.F.);
#180=ORIENTED_EDGE('',*,*,#140,.F.);
#181=ORIENTED_EDGE('',*,*,#141,.T.);
#182=ORIENTED_EDGE('',*,*,#142,.F.);
#183=ORIENTED_EDGE('',*,*,#141,.F.);
#184=ORIENTED_EDGE('',*,*,#138,.F.);
#185=ORIENTED_EDGE('',*,*,#137,.T.);
#186=ORIENTED_EDGE('',*,*,#142,.T.);
#187=ORIENTED_EDGE('',*,*,#143,.T.);
#188=ORIENTED_EDGE('',*,*,#144,.T.);
#189=ORIENTED_EDGE('',*,*,#143,.F.);
#190=ORIENTED_EDGE('',*,*,#144,.F.);
#191=ORIENTED_EDGE('',*,*,#145,.F.);
#192=ORIENTED_EDGE('',*,*,#130,.T.);
#193=ORIENTED_EDGE('',*,*,#146,.T.);
#194=ORIENTED_EDGE('',*,*,#147,.T.);
#195=ORIENTED_EDGE('',*,*,#146,.F.);
#196=ORIENTED_EDGE('',*,*,#147,.F.);
#197=ORIENTED_EDGE('',*,*,#148,.T.);
#198=ORIENTED_EDGE('',*,*,#145,.T.);
#199=ORIENTED_EDGE('',*,*,#148,.F.);
#200=ORIENTED_EDGE('',*,*,#124,.T.);
#201=ORIENTED_EDGE('',*,*,#125,.T.);
#202=ORIENTED_EDGE('',*,*,#122,.T.);
#203=ORIENTED_EDGE('',*,*,#132,.F.);
#204=ORIENTED_EDGE('',*,*,#149,.T.);
#205=ORIENTED_EDGE('',*,*,#149,.F.);
#206=CYLINDRICAL_SURFACE('',#240,1.5);
#207=CYLINDRICAL_SURFACE('',#247,1.666);
#208=CYLINDRICAL_SURFACE('',#252,2.942);
#209=CYLINDRICAL_SURFACE('',#258,4.5);
#210=CYLINDRICAL_SURFACE('',#267,3.5);
#211=ADVANCED_FACE('',(#44),#206,.F.);
#212=ADVANCED_FACE('',(#45),#38,.F.);
#213=ADVANCED_FACE('',(#46,#15),#20,.T.);
#214=ADVANCED_FACE('',(#47),#207,.F.);
#215=ADVANCED_FACE('',(#48),#39,.T.);
#216=ADVANCED_FACE('',(#49),#208,.T.);
#217=ADVANCED_FACE('',(#50),#21,.T.);
#218=ADVANCED_FACE('',(#51),#40,.T.);
#219=ADVANCED_FACE('',(#52),#209,.T.);
#220=ADVANCED_FACE('',(#53,#16),#22,.T.);
#221=ADVANCED_FACE('',(#54),#41,.T.);
#222=ADVANCED_FACE('',(#55,#17),#23,.F.);
#223=ADVANCED_FACE('',(#56),#42,.T.);
#224=ADVANCED_FACE('',(#57,#18,#19),#210,.T.);
#225=ADVANCED_FACE('',(#58),#43,.F.);
#226=CLOSED_SHELL('',(#211,#212,#213,#214,#215,#216,#217,#218,#219,#220,
#221,#222,#223,#224,#225));
#227=DERIVED_UNIT_ELEMENT(#229,1.);
#228=DERIVED_UNIT_ELEMENT(#474,-3.);
#229=(
MASS_UNIT()
NAMED_UNIT(*)
SI_UNIT(.KILO.,.GRAM.)
);
#230=DERIVED_UNIT((#227,#228));
#231=MEASURE_REPRESENTATION_ITEM('density measure',
POSITIVE_RATIO_MEASURE(7850.),#230);
#232=PROPERTY_DEFINITION_REPRESENTATION(#237,#234);
#233=PROPERTY_DEFINITION_REPRESENTATION(#238,#235);
#234=REPRESENTATION('material name',(#236),#471);
#235=REPRESENTATION('density',(#231),#471);
#236=DESCRIPTIVE_REPRESENTATION_ITEM('Steel','Steel');
#237=PROPERTY_DEFINITION('material property','material name',#481);
#238=PROPERTY_DEFINITION('material property','density of part',#481);
#239=AXIS2_PLACEMENT_3D('',#340,#269,#270);
#240=AXIS2_PLACEMENT_3D('',#341,#271,#272);
#241=AXIS2_PLACEMENT_3D('',#416,#274,#275);
#242=AXIS2_PLACEMENT_3D('',#418,#276,#277);
#243=AXIS2_PLACEMENT_3D('',#422,#279,#280);
#244=AXIS2_PLACEMENT_3D('',#423,#281,#282);
#245=AXIS2_PLACEMENT_3D('',#424,#283,#284);
#246=AXIS2_PLACEMENT_3D('',#426,#285,#286);
#247=AXIS2_PLACEMENT_3D('',#427,#287,#288);
#248=AXIS2_PLACEMENT_3D('',#430,#290,#291);
#249=AXIS2_PLACEMENT_3D('',#431,#292,#293);
#250=AXIS2_PLACEMENT_3D('',#433,#294,#295);
#251=AXIS2_PLACEMENT_3D('',#436,#297,#298);
#252=AXIS2_PLACEMENT_3D('',#437,#299,#300);
#253=AXIS2_PLACEMENT_3D('',#440,#302,#303);
#254=AXIS2_PLACEMENT_3D('',#441,#304,#305);
#255=AXIS2_PLACEMENT_3D('',#442,#306,#307);
#256=AXIS2_PLACEMENT_3D('',#444,#308,#309);
#257=AXIS2_PLACEMENT_3D('',#447,#311,#312);
#258=AXIS2_PLACEMENT_3D('',#448,#313,#314);
#259=AXIS2_PLACEMENT_3D('',#451,#316,#317);
#260=AXIS2_PLACEMENT_3D('',#452,#318,#319);
#261=AXIS2_PLACEMENT_3D('',#453,#320,#321);
#262=AXIS2_PLACEMENT_3D('',#456,#323,#324);
#263=AXIS2_PLACEMENT_3D('',#457,#325,#326);
#264=AXIS2_PLACEMENT_3D('',#459,#327,#328);
#265=AXIS2_PLACEMENT_3D('',#460,#329,#330);
#266=AXIS2_PLACEMENT_3D('',#463,#332,#333);
#267=AXIS2_PLACEMENT_3D('',#464,#334,#335);
#268=AXIS2_PLACEMENT_3D('',#466,#337,#338);
#269=DIRECTION('axis',(0.,0.,1.));
#270=DIRECTION('refdir',(1.,0.,0.));
#271=DIRECTION('center_axis',(0.,1.,0.));
#272=DIRECTION('ref_axis',(1.,0.,0.));
#273=DIRECTION('',(0.,1.,0.));
#274=DIRECTION('center_axis',(1.22464679914735E-16,0.,-1.));
#275=DIRECTION('ref_axis',(1.,0.,1.22464679914735E-16));
#276=DIRECTION('center_axis',(1.22464679914735E-16,0.,-1.));
#277=DIRECTION('ref_axis',(1.,0.,1.22464679914735E-16));
#278=DIRECTION('',(0.707106781186548,-8.65956056235494E-17,0.707106781186547));
#279=DIRECTION('center_axis',(-1.22464679914735E-16,0.,1.));
#280=DIRECTION('ref_axis',(1.,0.,1.22464679914735E-16));
#281=DIRECTION('center_axis',(-1.22464679914735E-16,0.,1.));
#282=DIRECTION('ref_axis',(1.,0.,1.22464679914735E-16));
#283=DIRECTION('center_axis',(1.22464679914735E-16,0.,-1.));
#284=DIRECTION('ref_axis',(-1.,0.,-1.22464679914735E-16));
#285=DIRECTION('center_axis',(-1.22464679914735E-16,0.,1.));
#286=DIRECTION('ref_axis',(-1.,0.,-1.22464679914735E-16));
#287=DIRECTION('center_axis',(-1.22464679914735E-16,0.,1.));
#288=DIRECTION('ref_axis',(-1.,0.,-1.22464679914735E-16));
#289=DIRECTION('',(-1.22464679914735E-16,0.,1.));
#290=DIRECTION('center_axis',(-1.22464679914735E-16,0.,1.));
#291=DIRECTION('ref_axis',(-1.,0.,-1.22464679914735E-16));
#292=DIRECTION('center_axis',(1.22464679914735E-16,0.,-1.));
#293=DIRECTION('ref_axis',(-1.,0.,-1.22464679914735E-16));
#294=DIRECTION('center_axis',(1.22464679914735E-16,0.,-1.));
#295=DIRECTION('ref_axis',(-1.,0.,-1.22464679914735E-16));
#296=DIRECTION('',(0.707106781186549,8.65956056235495E-17,-0.707106781186546));
#297=DIRECTION('center_axis',(-1.22464679914735E-16,0.,1.));
#298=DIRECTION('ref_axis',(-1.,0.,-1.22464679914735E-16));
#299=DIRECTION('center_axis',(-1.22464679914735E-16,0.,1.));
#300=DIRECTION('ref_axis',(-1.,0.,-1.22464679914735E-16));
#301=DIRECTION('',(1.22464679914735E-16,0.,-1.));
#302=DIRECTION('center_axis',(1.22464679914735E-16,0.,-1.));
#303=DIRECTION('ref_axis',(-1.,0.,-1.22464679914735E-16));
#304=DIRECTION('center_axis',(-1.22464679914735E-16,0.,1.));
#305=DIRECTION('ref_axis',(-1.,0.,-1.22464679914735E-16));
#306=DIRECTION('center_axis',(1.22464679914735E-16,0.,-1.));
#307=DIRECTION('ref_axis',(-1.,0.,-1.22464679914735E-16));
#308=DIRECTION('center_axis',(1.22464679914735E-16,0.,-1.));
#309=DIRECTION('ref_axis',(-1.,0.,-1.22464679914735E-16));
#310=DIRECTION('',(0.707106781186548,8.65956056235493E-17,-0.707106781186547));
#311=DIRECTION('center_axis',(-1.22464679914735E-16,0.,1.));
#312=DIRECTION('ref_axis',(-1.,0.,-1.22464679914735E-16));
#313=DIRECTION('center_axis',(-1.22464679914735E-16,0.,1.));
#314=DIRECTION('ref_axis',(-1.,0.,-1.22464679914735E-16));
#315=DIRECTION('',(1.22464679914735E-16,0.,-1.));
#316=DIRECTION('center_axis',(1.22464679914735E-16,0.,-1.));
#317=DIRECTION('ref_axis',(-1.,0.,-1.22464679914735E-16));
#318=DIRECTION('center_axis',(-1.22464679914735E-16,0.,1.));
#319=DIRECTION('ref_axis',(-1.,0.,-1.22464679914735E-16));
#320=DIRECTION('center_axis',(-1.22464679914735E-16,0.,1.));
#321=DIRECTION('ref_axis',(-1.,0.,-1.22464679914735E-16));
#322=DIRECTION('',(-0.707106781186548,-8.65956056235494E-17,-0.707106781186547));
#323=DIRECTION('center_axis',(-1.22464679914735E-16,0.,1.));
#324=DIRECTION('ref_axis',(-1.,0.,-1.22464679914735E-16));
#325=DIRECTION('center_axis',(-1.22464679914735E-16,0.,1.));
#326=DIRECTION('ref_axis',(-1.,0.,-1.22464679914735E-16));
#327=DIRECTION('center_axis',(1.22464679914735E-16,0.,-1.));
#328=DIRECTION('ref_axis',(-1.,0.,-1.22464679914735E-16));
#329=DIRECTION('center_axis',(-1.22464679914735E-16,0.,1.));
#330=DIRECTION('ref_axis',(-1.,0.,-1.22464679914735E-16));
#331=DIRECTION('',(0.707106781186547,-8.65956056235493E-17,0.707106781186548));
#332=DIRECTION('center_axis',(1.22464679914735E-16,0.,-1.));
#333=DIRECTION('ref_axis',(-1.,0.,-1.22464679914735E-16));
#334=DIRECTION('center_axis',(1.22464679914735E-16,0.,-1.));
#335=DIRECTION('ref_axis',(-1.,0.,-1.22464679914735E-16));
#336=DIRECTION('',(-1.22464679914735E-16,0.,1.));
#337=DIRECTION('center_axis',(1.22464679914735E-16,0.,-1.));
#338=DIRECTION('ref_axis',(-1.,0.,-1.22464679914735E-16));
#339=DIRECTION('',(-0.857167300702112,-1.04972719113862E-16,0.515038074910054));
#340=CARTESIAN_POINT('',(0.,0.,0.));
#341=CARTESIAN_POINT('Origin',(0.,0.,-6.));
#342=CARTESIAN_POINT('',(-1.5,-3.16227766016838,-6.));
#343=CARTESIAN_POINT('Ctrl Pts',(1.5,-3.16227766016838,-6.));
#344=CARTESIAN_POINT('Ctrl Pts',(1.5,-3.16227766016838,-6.19119518662097));
#345=CARTESIAN_POINT('Ctrl Pts',(1.46128089474713,-3.18145656216193,-6.3931215335909));
#346=CARTESIAN_POINT('Ctrl Pts',(1.30751358464317,-3.24767845982267,-6.76177115878391));
#347=CARTESIAN_POINT('Ctrl Pts',(1.19256210313172,-3.29347128575106,-6.92875824042793));
#348=CARTESIAN_POINT('Ctrl Pts',(0.9289385765848,-3.37730339952892,-7.19238176697484));
#349=CARTESIAN_POINT('Ctrl Pts',(0.761885081458042,-3.42118515008081,-7.30746892406443));
#350=CARTESIAN_POINT('Ctrl Pts',(0.392969313264066,-3.48289417499875,-7.46134152935976));
#351=CARTESIAN_POINT('Ctrl Pts',(0.190933784799064,-3.5,-7.5));
#352=CARTESIAN_POINT('Ctrl Pts',(-0.190933784799064,-3.5,-7.5));
#353=CARTESIAN_POINT('Ctrl Pts',(-0.392969313264066,-3.48289417499875,-7.46134152935976));
#354=CARTESIAN_POINT('Ctrl Pts',(-0.761885081458041,-3.42118515008081,-7.30746892406443));
#355=CARTESIAN_POINT('Ctrl Pts',(-0.928938576584799,-3.37730339952892,-7.19238176697484));
#356=CARTESIAN_POINT('Ctrl Pts',(-1.19256210313172,-3.29347128575106,-6.92875824042793));
#357=CARTESIAN_POINT('Ctrl Pts',(-1.30751358464317,-3.24767845982267,-6.7617711587839));
#358=CARTESIAN_POINT('Ctrl Pts',(-1.46128089474713,-3.18145656216193,-6.39312153359089));
#359=CARTESIAN_POINT('Ctrl Pts',(-1.5,-3.16227766016838,-6.19119518662097));
#360=CARTESIAN_POINT('Ctrl Pts',(-1.5,-3.16227766016838,-5.80880481337904));
#361=CARTESIAN_POINT('Ctrl Pts',(-1.46128089474713,-3.18145656216193,-5.6068784664091));
#362=CARTESIAN_POINT('Ctrl Pts',(-1.30751358464317,-3.24767845982267,-5.2382288412161));
#363=CARTESIAN_POINT('Ctrl Pts',(-1.19256210313172,-3.29347128575106,-5.07124175957207));
#364=CARTESIAN_POINT('Ctrl Pts',(-0.9289385765848,-3.37730339952892,-4.80761823302516));
#365=CARTESIAN_POINT('Ctrl Pts',(-0.761885081458041,-3.42118515008081,-4.69253107593557));
#366=CARTESIAN_POINT('Ctrl Pts',(-0.392969313264066,-3.48289417499875,-4.53865847064024));
#367=CARTESIAN_POINT('Ctrl Pts',(-0.190933784799064,-3.5,-4.5));
#368=CARTESIAN_POINT('Ctrl Pts',(0.190933784799064,-3.5,-4.5));
#369=CARTESIAN_POINT('Ctrl Pts',(0.392969313264065,-3.48289417499875,-4.53865847064024));
#370=CARTESIAN_POINT('Ctrl Pts',(0.761885081458041,-3.42118515008081,-4.69253107593557));
#371=CARTESIAN_POINT('Ctrl Pts',(0.928938576584799,-3.37730339952892,-4.80761823302516));
#372=CARTESIAN_POINT('Ctrl Pts',(1.19256210313172,-3.29347128575106,-5.07124175957207));
#373=CARTESIAN_POINT('Ctrl Pts',(1.30751358464317,-3.24767845982267,-5.2382288412161));
#374=CARTESIAN_POINT('Ctrl Pts',(1.46128089474713,-3.18145656216193,-5.6068784664091));
#375=CARTESIAN_POINT('Ctrl Pts',(1.5,-3.16227766016838,-5.80880481337904));
#376=CARTESIAN_POINT('Ctrl Pts',(1.5,-3.16227766016838,-6.));
#377=CARTESIAN_POINT('',(-1.5,3.16227766016838,-6.));
#378=CARTESIAN_POINT('',(-1.5,0.,-6.));
#379=CARTESIAN_POINT('',(1.5,3.16227766016838,-6.));
#380=CARTESIAN_POINT('Ctrl Pts',(1.5,3.16227766016838,-6.));
#381=CARTESIAN_POINT('Ctrl Pts',(1.5,3.16227766016838,-5.80880481337904));
#382=CARTESIAN_POINT('Ctrl Pts',(1.46128089474713,3.18145656216193,-5.6068784664091));
#383=CARTESIAN_POINT('Ctrl Pts',(1.30751358464317,3.24767845982267,-5.2382288412161));
#384=CARTESIAN_POINT('Ctrl Pts',(1.19256210313172,3.29347128575106,-5.07124175957207));
#385=CARTESIAN_POINT('Ctrl Pts',(0.928938576584799,3.37730339952892,-4.80761823302516));
#386=CARTESIAN_POINT('Ctrl Pts',(0.76188508145804,3.42118515008081,-4.69253107593557));
#387=CARTESIAN_POINT('Ctrl Pts',(0.392969313264065,3.48289417499875,-4.53865847064024));
#388=CARTESIAN_POINT('Ctrl Pts',(0.190933784799064,3.5,-4.5));
#389=CARTESIAN_POINT('Ctrl Pts',(-0.190933784799064,3.5,-4.5));
#390=CARTESIAN_POINT('Ctrl Pts',(-0.392969313264066,3.48289417499875,-4.53865847064024));
#391=CARTESIAN_POINT('Ctrl Pts',(-0.761885081458041,3.42118515008081,-4.69253107593557));
#392=CARTESIAN_POINT('Ctrl Pts',(-0.9289385765848,3.37730339952892,-4.80761823302516));
#393=CARTESIAN_POINT('Ctrl Pts',(-1.19256210313172,3.29347128575106,-5.07124175957207));
#394=CARTESIAN_POINT('Ctrl Pts',(-1.30751358464317,3.24767845982267,-5.2382288412161));
#395=CARTESIAN_POINT('Ctrl Pts',(-1.46128089474713,3.18145656216193,-5.6068784664091));
#396=CARTESIAN_POINT('Ctrl Pts',(-1.5,3.16227766016838,-5.80880481337904));
#397=CARTESIAN_POINT('Ctrl Pts',(-1.5,3.16227766016838,-6.));
#398=CARTESIAN_POINT('Ctrl Pts',(-1.5,3.16227766016838,-6.));
#399=CARTESIAN_POINT('Ctrl Pts',(-1.5,3.16227766016838,-6.19119518662096));
#400=CARTESIAN_POINT('Ctrl Pts',(-1.46128089474713,3.18145656216193,-6.39312153359089));
#401=CARTESIAN_POINT('Ctrl Pts',(-1.30751358464317,3.24767845982267,-6.7617711587839));
#402=CARTESIAN_POINT('Ctrl Pts',(-1.19256210313172,3.29347128575106,-6.92875824042793));
#403=CARTESIAN_POINT('Ctrl Pts',(-0.928938576584799,3.37730339952892,-7.19238176697484));
#404=CARTESIAN_POINT('Ctrl Pts',(-0.761885081458041,3.42118515008081,-7.30746892406443));
#405=CARTESIAN_POINT('Ctrl Pts',(-0.392969313264066,3.48289417499875,-7.46134152935976));
#406=CARTESIAN_POINT('Ctrl Pts',(-0.190933784799064,3.5,-7.5));
#407=CARTESIAN_POINT('Ctrl Pts',(0.190933784799064,3.5,-7.5));
#408=CARTESIAN_POINT('Ctrl Pts',(0.392969313264067,3.48289417499875,-7.46134152935976));
#409=CARTESIAN_POINT('Ctrl Pts',(0.761885081458043,3.42118515008081,-7.30746892406443));
#410=CARTESIAN_POINT('Ctrl Pts',(0.9289385765848,3.37730339952892,-7.19238176697484));
#411=CARTESIAN_POINT('Ctrl Pts',(1.19256210313172,3.29347128575106,-6.92875824042793));
#412=CARTESIAN_POINT('Ctrl Pts',(1.30751358464317,3.24767845982267,-6.76177115878391));
#413=CARTESIAN_POINT('Ctrl Pts',(1.46128089474713,3.18145656216193,-6.3931215335909));
#414=CARTESIAN_POINT('Ctrl Pts',(1.5,3.16227766016838,-6.19119518662097));
#415=CARTESIAN_POINT('Ctrl Pts',(1.5,3.16227766016838,-6.));
#416=CARTESIAN_POINT('Origin',(3.77018727514188E-15,0.,-31.9));
#417=CARTESIAN_POINT('',(-2.366,2.89751432678264E-16,-32.25));
#418=CARTESIAN_POINT('Origin',(3.81304991311204E-15,0.,-32.25));
#419=CARTESIAN_POINT('',(-1.666,-2.04026156737949E-16,-31.55));
#420=CARTESIAN_POINT('',(-2.016,2.46888794708106E-16,-31.9));
#421=CARTESIAN_POINT('',(1.666,2.04026156737949E-16,-31.55));
#422=CARTESIAN_POINT('Origin',(3.72732463717172E-15,0.,-31.55));
#423=CARTESIAN_POINT('Origin',(3.72732463717172E-15,0.,-31.55));
#424=CARTESIAN_POINT('Origin',(3.94948592725021E-15,0.,-32.25));
#425=CARTESIAN_POINT('',(3.3,4.04133443718627E-16,-32.25));
#426=CARTESIAN_POINT('Origin',(3.94948592725021E-15,0.,-32.25));
#427=CARTESIAN_POINT('Origin',(3.07826183362362E-15,0.,-26.25));
#428=CARTESIAN_POINT('',(1.666,2.04026156737949E-16,-20.25));
#429=CARTESIAN_POINT('',(1.666,2.04026156737949E-16,-26.25));
#430=CARTESIAN_POINT('Origin',(2.34347375413521E-15,0.,-20.25));
#431=CARTESIAN_POINT('Origin',(-5.76808642398403E-15,0.,47.1));
#432=CARTESIAN_POINT('',(1.94199999999999,-2.37826408394416E-16,47.6));
#433=CARTESIAN_POINT('Origin',(-5.8293187639414E-15,0.,47.6));
#434=CARTESIAN_POINT('',(2.94199999999999,3.60291088309151E-16,46.6));
#435=CARTESIAN_POINT('',(2.44199999999999,2.99058748351784E-16,47.1));
#436=CARTESIAN_POINT('Origin',(-5.70685408402667E-15,0.,46.6));
#437=CARTESIAN_POINT('Origin',(-4.60467196479405E-15,0.,37.6));
#438=CARTESIAN_POINT('',(2.942,-3.60291088309151E-16,37.6));
#439=CARTESIAN_POINT('',(2.942,3.60291088309151E-16,37.6));
#440=CARTESIAN_POINT('Origin',(-4.60467196479405E-15,0.,37.6));
#441=CARTESIAN_POINT('Origin',(-5.8293187639414E-15,0.,47.6));
#442=CARTESIAN_POINT('Origin',(-4.59242549680258E-15,0.,37.5));
#443=CARTESIAN_POINT('',(4.3,-5.26598123633362E-16,37.6));
#444=CARTESIAN_POINT('Origin',(-4.60467196479405E-15,0.,37.6));
#445=CARTESIAN_POINT('',(4.5,5.51091059616309E-16,37.4));
#446=CARTESIAN_POINT('',(4.4,5.38844591624835E-16,37.5));
#447=CARTESIAN_POINT('Origin',(-4.5801790288111E-15,0.,37.4));
#448=CARTESIAN_POINT('Origin',(0.,0.,0.));
#449=CARTESIAN_POINT('',(4.5,-5.51091059616309E-16,0.200000000000001));
#450=CARTESIAN_POINT('',(4.5,5.51091059616309E-16,5.51091059616309E-16));
#451=CARTESIAN_POINT('Origin',(-2.44929359829471E-17,0.,0.2));
#452=CARTESIAN_POINT('Origin',(-4.60467196479405E-15,0.,37.6));
#453=CARTESIAN_POINT('Origin',(-1.22464679914735E-17,0.,0.1));
#454=CARTESIAN_POINT('',(4.3,5.26598123633362E-16,5.26598123633362E-16));
#455=CARTESIAN_POINT('',(4.4,5.38844591624835E-16,0.100000000000001));
#456=CARTESIAN_POINT('Origin',(0.,0.,0.));
#457=CARTESIAN_POINT('Origin',(0.,0.,0.));
#458=CARTESIAN_POINT('',(3.5,-4.28626379701574E-16,4.28626379701574E-16));
#459=CARTESIAN_POINT('Origin',(0.,0.,0.));
#460=CARTESIAN_POINT('Origin',(3.93723945925874E-15,0.,-32.15));
#461=CARTESIAN_POINT('',(3.5,-4.28626379701574E-16,-32.05));
#462=CARTESIAN_POINT('',(3.4,-4.163799117101E-16,-32.15));
#463=CARTESIAN_POINT('Origin',(3.92499299126727E-15,0.,-32.05));
#464=CARTESIAN_POINT('Origin',(0.,0.,0.));
#465=CARTESIAN_POINT('',(3.5,-4.28626379701574E-16,4.28626379701574E-16));
#466=CARTESIAN_POINT('Origin',(2.28217811271752E-15,0.,-19.74948310435));
#467=CARTESIAN_POINT('',(2.22088247129983E-15,0.,-19.2489662087001));
#468=CARTESIAN_POINT('',(0.833000000000002,1.02013078368975E-16,-19.74948310435));
#469=UNCERTAINTY_MEASURE_WITH_UNIT(LENGTH_MEASURE(0.01),#473,
'DISTANCE_ACCURACY_VALUE',
'Maximum model space distance between geometric entities at asserted c
onnectivities');
#470=UNCERTAINTY_MEASURE_WITH_UNIT(LENGTH_MEASURE(0.01),#473,
'DISTANCE_ACCURACY_VALUE',
'Maximum model space distance between geometric entities at asserted c
onnectivities');
#471=(
GEOMETRIC_REPRESENTATION_CONTEXT(3)
GLOBAL_UNCERTAINTY_ASSIGNED_CONTEXT((#469))
GLOBAL_UNIT_ASSIGNED_CONTEXT((#473,#475,#476))
REPRESENTATION_CONTEXT('','3D')
);
#472=(
GEOMETRIC_REPRESENTATION_CONTEXT(3)
GLOBAL_UNCERTAINTY_ASSIGNED_CONTEXT((#470))
GLOBAL_UNIT_ASSIGNED_CONTEXT((#473,#475,#476))
REPRESENTATION_CONTEXT('','3D')
);
#473=(
LENGTH_UNIT()
NAMED_UNIT(*)
SI_UNIT(.MILLI.,.METRE.)
);
#474=(
LENGTH_UNIT()
NAMED_UNIT(*)
SI_UNIT($,.METRE.)
);
#475=(
NAMED_UNIT(*)
PLANE_ANGLE_UNIT()
SI_UNIT($,.RADIAN.)
);
#476=(
NAMED_UNIT(*)
SI_UNIT($,.STERADIAN.)
SOLID_ANGLE_UNIT()
);
#477=SHAPE_DEFINITION_REPRESENTATION(#478,#479);
#478=PRODUCT_DEFINITION_SHAPE('',$,#481);
#479=SHAPE_REPRESENTATION('',(#239),#471);
#480=PRODUCT_DEFINITION_CONTEXT('part definition',#485,'design');
#481=PRODUCT_DEFINITION('Sanjuks V3-R Shaft','Sanjuks V3-R Shaft v7',#482,
#480);
#482=PRODUCT_DEFINITION_FORMATION('',$,#487);
#483=PRODUCT_RELATED_PRODUCT_CATEGORY('Sanjuks V3-R Shaft v7',
'Sanjuks V3-R Shaft v7',(#487));
#484=APPLICATION_PROTOCOL_DEFINITION('international standard',
'ap242_managed_model_based_3d_engineering',2011,#485);
#485=APPLICATION_CONTEXT('Managed model based 3d engineering');
#486=PRODUCT_CONTEXT('part definition',#485,'mechanical');
#487=PRODUCT('Sanjuks V3-R Shaft','Sanjuks V3-R Shaft v7',$,(#486));
#488=PRESENTATION_STYLE_ASSIGNMENT((#489));
#489=SURFACE_STYLE_USAGE(.BOTH.,#490);
#490=SURFACE_SIDE_STYLE('',(#491));
#491=SURFACE_STYLE_FILL_AREA(#492);
#492=FILL_AREA_STYLE('Steel - Satin',(#493));
#493=FILL_AREA_STYLE_COLOUR('Steel - Satin',#494);
#494=COLOUR_RGB('Steel - Satin',0.627450980392157,0.627450980392157,0.627450980392157);
ENDSEC;
END-ISO-10303-21;
